<svg xmlns="http://www.w3.org/2000/svg" data-name="Layer 1" viewBox="0 0 167.49 167.49"><path d="M83.74 0C37.49 0 0 37.49 0 83.74s37.49 83.74 83.74 83.74 83.74-37.49 83.74-83.74S129.99 0 83.74 0Zm38.41 120.79c-1.5 2.47-4.72 3.24-7.18 1.74-19.67-12.02-44.42-14.73-73.57-8.07a5.214 5.214 0 1 1-2.32-10.17c31.9-7.29 59.26-4.15 81.34 9.33a5.217 5.217 0 0 1 1.73 7.18Zm10.25-22.8c-1.89 3.07-5.91 4.04-8.98 2.15-22.5-13.83-56.82-17.84-83.45-9.76-3.45 1.04-7.1-.9-8.15-4.35a6.54 6.54 0 0 1 4.35-8.14c30.42-9.23 68.23-4.76 94.07 11.13 3.07 1.89 4.04 5.91 2.15 8.98Zm.88-23.74c-26.99-16.03-71.52-17.5-97.29-9.68-4.14 1.26-8.51-1.08-9.77-5.22a7.839 7.839 0 0 1 5.22-9.77c29.58-8.98 78.76-7.24 109.83 11.2 3.72 2.21 4.94 7.02 2.74 10.73-2.21 3.72-7.02 4.95-10.73 2.74Z" style="fill:#00b26b"/></svg>